<?xml version="1.0" standalone="no"?>
<!DOCTYPE svg PUBLIC "-//W3C//DTD SVG 20010904//EN"
 "http://www.w3.org/TR/2001/REC-SVG-20010904/DTD/svg10.dtd">
<svg version="1.0" xmlns="http://www.w3.org/2000/svg"
 width="512.000000pt" height="512.000000pt" viewBox="0 0 512.000000 512.000000"
 preserveAspectRatio="xMidYMid meet">

<g transform="translate(0.000000,512.000000) scale(0.100000,-0.100000)"
fill="#ffffff" stroke="none">
<path d="M2330 5110 c-801 -78 -1509 -515 -1944 -1200 -63 -99 -186 -351 -230
-471 -49 -134 -102 -340 -128 -499 -31 -195 -31 -565 0 -760 46 -281 116 -501
242 -755 201 -406 498 -743 880 -999 129 -87 387 -217 531 -270 248 -91 541
-146 784 -149 144 -2 151 -1 184 22 35 25 70 90 71 130 0 41 -39 109 -76 132
-30 18 -58 23 -187 30 -386 20 -721 120 -1042 312 -567 337 -945 888 -1067
1550 -20 106 -23 156 -23 377 0 221 3 271 23 377 122 666 501 1214 1074 1554
348 207 724 309 1138 309 414 0 790 -102 1138 -309 570 -338 954 -892 1073
-1549 33 -181 38 -470 11 -629 -28 -159 -79 -315 -151 -457 -75 -147 -133
-228 -245 -344 -154 -158 -310 -247 -521 -297 -31 -7 -185 -23 -185 -18 0 1
20 16 44 32 99 68 221 218 249 306 9 28 23 88 32 135 9 47 20 107 26 133 15
80 11 120 -16 156 -98 134 -499 298 -665 272 -91 -15 -91 -13 -144 -235 -51
-212 -77 -253 -154 -242 -88 13 -112 34 -688 610 -576 576 -597 600 -610 688
-11 77 30 103 242 154 222 53 220 53 235 144 26 166 -138 567 -272 665 -40 30
-69 31 -214 5 -225 -41 -252 -51 -370 -145 -125 -98 -209 -223 -259 -383 -94
-301 -25 -648 189 -947 139 -195 784 -877 1040 -1101 348 -303 716 -494 1071
-554 109 -19 152 -21 274 -16 212 8 354 44 543 137 146 72 239 140 373 274
371 370 555 913 504 1490 -44 500 -225 959 -538 1365 -150 195 -432 448 -662
594 -99 63 -351 186 -471 230 -135 49 -341 102 -494 126 -147 23 -475 34 -615
20z"/>
<path d="M2610 4212 l0 -130 78 -7 c188 -15 318 -42 461 -95 363 -134 670
-411 851 -770 78 -155 149 -419 150 -560 0 -25 3 -62 6 -82 l7 -38 129 0 129
0 -7 93 c-22 327 -109 601 -275 870 -133 214 -329 413 -545 553 -268 173 -554
265 -896 290 l-88 6 0 -130z"/>
<path d="M2610 3761 l0 -129 68 -7 c285 -26 520 -133 708 -321 167 -167 291
-422 309 -635 3 -41 8 -89 11 -107 l5 -33 127 3 127 3 -3 80 c-8 194 -83 441
-186 610 -225 372 -603 611 -1035 655 -57 5 -109 10 -117 10 -11 0 -14 -25
-14 -129z"/>
</g>
</svg>
