<?xml version="1.0" standalone="no"?>
<!DOCTYPE svg PUBLIC "-//W3C//DTD SVG 20010904//EN"
 "http://www.w3.org/TR/2001/REC-SVG-20010904/DTD/svg10.dtd">
<svg version="1.0" xmlns="http://www.w3.org/2000/svg"
 width="920.000000pt" height="920.000000pt" viewBox="0 0 920.000000 920.000000"
 preserveAspectRatio="xMidYMid meet">

<g transform="translate(0.000000,920.000000) scale(0.100000,-0.100000)"
fill="#ffffff" stroke="none">
<path d="M3785 9191 c-94 -5 -127 -11 -153 -26 -73 -43 -96 -132 -197 -735
-36 -217 -69 -411 -73 -430 -8 -34 -9 -35 -152 -85 -169 -60 -238 -89 -374
-157 -54 -27 -104 -47 -112 -44 -8 3 -154 106 -326 229 -462 331 -594 416
-657 424 -61 7 -73 0 -208 -121 -128 -116 -539 -522 -614 -608 -60 -70 -74
-104 -73 -184 1 -51 4 -55 218 -364 296 -427 349 -504 382 -559 l32 -53 -18
-52 c-10 -28 -45 -109 -78 -181 -33 -71 -76 -177 -97 -235 -46 -130 -60 -157
-82 -164 -42 -13 -190 -41 -514 -96 -421 -72 -571 -103 -612 -127 -23 -14 -37
-34 -52 -73 -19 -52 -20 -82 -20 -560 0 -551 4 -596 53 -651 32 -35 111 -55
507 -124 143 -25 343 -61 445 -81 216 -41 211 -38 260 -173 49 -135 79 -206
147 -353 35 -75 63 -142 63 -149 0 -6 -82 -127 -183 -268 -254 -355 -425 -606
-448 -655 -31 -68 -25 -116 19 -173 119 -150 692 -727 754 -759 17 -9 57 -18
88 -21 84 -8 53 -27 679 410 286 200 317 219 347 214 18 -3 97 -35 176 -70 79
-35 211 -88 294 -118 l151 -53 62 -386 c75 -459 122 -694 147 -746 25 -51 71
-80 141 -89 32 -5 286 -7 564 -6 l507 2 5 -278 c3 -160 10 -297 17 -323 16
-64 52 -107 103 -122 34 -10 457 -13 2115 -12 l2073 0 50 51 51 50 1 1619 c2
1458 0 1629 -14 1716 -9 53 -26 117 -38 142 -28 56 -171 195 -232 223 -95 45
-115 46 -961 50 -455 2 -808 8 -808 13 0 8 70 211 74 217 2 3 486 91 801 147
270 48 349 70 390 112 55 55 58 85 58 593 0 511 -5 586 -37 633 -45 66 -140
93 -622 173 -310 52 -573 101 -580 108 -2 2 -32 79 -68 173 -35 93 -90 225
-121 294 -31 69 -57 132 -58 141 0 9 82 136 183 283 356 514 448 653 461 694
27 90 -26 159 -442 573 -294 294 -358 348 -418 356 -70 9 -147 -35 -526 -306
-104 -74 -259 -184 -343 -243 l-153 -107 -39 14 c-22 8 -104 43 -182 78 -79
36 -190 81 -248 102 -124 44 -168 69 -175 98 -9 40 -44 239 -95 537 -62 362
-95 513 -123 565 -31 56 -76 75 -200 86 -114 9 -706 9 -892 0z m780 -372 c7
-8 36 -140 65 -304 111 -623 145 -782 176 -816 28 -31 94 -61 236 -107 145
-48 264 -97 498 -208 218 -102 218 -102 365 -4 61 40 238 164 395 275 157 111
313 221 348 244 l63 43 32 -25 c18 -14 131 -122 251 -240 l219 -215 -213 -304
c-117 -166 -260 -374 -318 -461 -143 -215 -142 -194 -19 -458 107 -229 138
-304 192 -469 47 -142 65 -180 106 -214 55 -47 132 -70 359 -106 74 -12 279
-46 455 -74 l320 -53 0 -341 c0 -214 -4 -345 -10 -351 -5 -5 -138 -33 -295
-61 -420 -75 -751 -140 -785 -155 -65 -27 -104 -97 -175 -313 -26 -81 -57
-168 -69 -194 l-20 -48 -721 0 -721 0 71 81 c181 205 321 489 366 739 24 131
24 439 0 570 -23 128 -65 252 -135 395 -206 420 -595 721 -1064 822 -127 28
-507 25 -633 -4 -290 -68 -538 -206 -750 -417 -183 -183 -292 -359 -374 -603
-52 -156 -70 -278 -70 -478 0 -195 18 -322 65 -463 84 -249 197 -435 375 -613
175 -176 357 -289 600 -373 174 -61 238 -70 490 -70 239 -1 287 6 500 73 35
11 65 19 67 18 1 -2 -2 -70 -7 -152 -5 -83 -14 -424 -20 -760 l-12 -610 -73
-350 c-86 -413 -119 -545 -137 -556 -7 -5 -164 -8 -348 -6 l-335 2 -77 460
c-83 494 -100 579 -130 638 -20 40 -97 97 -131 97 -34 0 -259 81 -407 147
-324 145 -370 164 -404 170 -64 10 -141 -37 -705 -432 l-284 -198 -196 199
c-240 243 -275 285 -267 317 5 23 91 148 356 522 62 88 144 210 182 270 68
107 70 112 66 165 -3 44 -22 92 -95 245 -105 218 -117 247 -185 445 -57 168
-92 236 -128 255 -45 23 -251 67 -590 126 -193 33 -500 95 -506 102 -8 7 -11
378 -5 536 l6 155 365 62 c511 87 694 123 728 144 44 27 74 85 135 265 31 88
90 237 133 330 141 312 144 318 144 364 0 34 -10 60 -51 127 -68 113 -187 289
-396 586 -95 135 -173 250 -173 255 0 7 383 391 457 457 l32 29 58 -38 c32
-21 119 -81 193 -134 478 -337 627 -436 684 -452 39 -11 114 10 215 61 133 66
356 159 506 210 181 62 240 92 265 132 31 51 40 98 146 748 31 190 58 347 61
350 12 13 150 18 401 16 219 -2 276 -6 287 -17z m-187 -2709 c193 -21 324 -68
486 -174 251 -163 449 -450 502 -726 22 -110 29 -310 15 -412 -31 -231 -153
-469 -331 -648 -138 -140 -333 -253 -535 -312 -91 -26 -359 -37 -473 -18 -148
24 -341 106 -482 205 -89 63 -230 206 -287 290 -364 542 -217 1261 333 1624
116 77 209 119 341 155 101 28 262 34 431 16z m4389 -2652 c42 -45 53 -70 53
-117 l0 -41 -1830 0 -1830 0 0 38 c0 45 35 106 76 132 28 19 64 20 1765 20
l1735 0 31 -32z m-1694 -518 l1757 0 0 -1284 0 -1283 -362 -6 c-200 -3 -1026
-5 -1835 -6 l-1473 -1 0 1296 0 1296 78 -5 c42 -4 868 -6 1835 -7z"/>
<path d="M6528 2545 c-156 -154 -322 -318 -370 -364 l-87 -84 -38 26 c-21 15
-83 66 -138 113 -138 119 -174 144 -206 144 -23 0 -46 -21 -133 -119 -58 -66
-106 -123 -105 -128 0 -8 172 -155 477 -410 81 -68 153 -123 160 -123 7 0 231
217 498 483 l485 482 -130 130 -130 129 -283 -279z"/>
<path d="M6433 1534 l-372 -365 -148 127 c-81 70 -165 143 -185 162 -23 22
-41 32 -47 27 -45 -49 -182 -208 -205 -238 -17 -22 -25 -41 -20 -46 5 -5 106
-91 224 -192 118 -100 257 -218 308 -262 l94 -80 176 176 c97 96 321 318 497
491 l320 316 -128 125 c-71 69 -132 125 -135 125 -4 0 -174 -165 -379 -366z"/>
</g>
</svg>
