<?xml version="1.0" standalone="no"?>
<!DOCTYPE svg PUBLIC "-//W3C//DTD SVG 20010904//EN"
 "http://www.w3.org/TR/2001/REC-SVG-20010904/DTD/svg10.dtd">
<svg version="1.0" xmlns="http://www.w3.org/2000/svg"
 width="296.000000pt" height="261.000000pt" viewBox="0 0 296.000000 261.000000"
 preserveAspectRatio="xMidYMid meet">

<g transform="translate(0.000000,261.000000) scale(0.100000,-0.100000)"
fill="#ffffff" stroke="none">
<path d="M848 2001 c-313 -86 -568 -158 -568 -161 0 -3 309 -79 688 -168 l687
-162 200 68 c110 38 370 126 578 197 208 70 376 129 375 131 -8 7 -1332 254
-1361 253 -17 -1 -287 -72 -599 -158z"/>
<path d="M2618 1748 c-27 -9 -28 -11 -28 -90 0 -76 -2 -82 -31 -116 -30 -34
-31 -38 -27 -110 3 -66 6 -77 31 -98 41 -35 100 -33 138 5 27 27 29 35 29 104
0 70 -2 77 -30 105 -29 29 -30 34 -30 121 0 97 -1 98 -52 79z"/>
<path d="M810 1490 c0 -71 1 -130 3 -130 2 0 206 -72 453 -161 l449 -161 101
6 c166 9 320 50 370 97 24 22 24 24 24 247 0 175 -3 223 -12 219 -7 -2 -132
-45 -278 -94 l-265 -90 -410 98 c-226 54 -416 98 -422 99 -10 0 -13 -32 -13
-130z"/>
<path d="M400 1399 c-37 -15 -79 -58 -105 -109 -47 -93 -105 -58 595 -369
l625 -279 32 61 c58 109 167 197 243 197 16 0 30 3 30 8 0 5 -1319 480 -1385
498 -5 1 -21 -2 -35 -7z"/>
<path d="M287 1083 c-12 -12 -8 -120 6 -131 9 -8 1334 -642 1341 -642 1 0 0
18 -2 39 -7 69 57 218 143 337 15 20 14 22 -36 43 l-52 21 -23 -21 c-13 -12
-43 -61 -67 -109 l-43 -87 -614 273 c-337 151 -621 276 -630 279 -9 3 -19 2
-23 -2z"/>
<path d="M1776 812 c-2 -4 29 -21 70 -36 41 -16 74 -30 74 -32 0 -1 -27 -40
-60 -86 -81 -111 -140 -232 -147 -303 -3 -30 -3 -55 1 -55 23 0 90 47 130 91
70 77 120 186 124 271 5 77 -8 106 -61 138 -32 20 -121 28 -131 12z"/>
</g>
</svg>
