<?xml version="1.0" standalone="no"?>
<!DOCTYPE svg PUBLIC "-//W3C//DTD SVG 20010904//EN"
 "http://www.w3.org/TR/2001/REC-SVG-20010904/DTD/svg10.dtd">
<svg version="1.0" xmlns="http://www.w3.org/2000/svg"
 width="6001.000000pt" height="587.000000pt" viewBox="0 0 6001.000000 587.000000"
 preserveAspectRatio="xMidYMid meet">

<g transform="translate(0.000000,587.000000) scale(0.100000,-0.100000)"
fill="#000000" stroke="none">
<path d="M4250 2980 l0 -2880 2524 0 2523 0 42 138 c23 75 106 351 185 612
l143 475 -2023 3 -2024 2 0 2265 0 2265 -685 0 -685 0 0 -2880z"/>
<path d="M10610 5793 c-11 -38 -94 -311 -183 -608 l-163 -540 2080 -5 2081 -5
79 -28 c109 -38 160 -71 238 -149 191 -194 251 -555 144 -870 -18 -53 -48
-123 -67 -155 -48 -82 -152 -184 -225 -221 -130 -66 -40 -62 -1573 -62 l-1391
0 0 506 c0 419 -2 505 -13 501 -8 -3 -292 -80 -633 -172 -340 -92 -643 -173
-672 -182 l-52 -14 2 -1842 3 -1842 683 -3 682 -2 0 909 0 910 1443 4 c1307 3
1453 5 1562 21 507 74 881 243 1193 540 344 329 516 702 554 1198 45 597 -166
1168 -587 1591 -259 260 -571 433 -941 521 -270 64 -126 60 -2271 63 l-1952 3
-21 -67z"/>
<path d="M22315 5848 c-2 -7 -85 -281 -184 -608 l-179 -595 1967 -5 c2184 -6
2001 0 2144 -71 85 -43 201 -162 249 -254 68 -131 83 -205 82 -410 0 -166 -2
-187 -27 -268 -66 -215 -186 -372 -333 -438 -112 -51 -66 -49 -1436 -49
l-1278 0 0 506 c0 481 -1 505 -18 500 -10 -3 -310 -85 -667 -181 -358 -97
-658 -178 -667 -181 -17 -5 -18 -102 -18 -1850 l0 -1844 685 0 685 0 0 910 0
910 918 0 917 -1 585 -850 c322 -468 604 -878 628 -910 l42 -59 1351 2 1352 3
800 1728 c440 950 804 1724 808 1720 6 -6 867 -1834 886 -1880 4 -10 -130 -13
-637 -15 l-642 -3 -198 -465 -198 -465 1065 -5 1065 -5 145 -307 146 -308 573
0 c434 0 574 3 574 12 0 24 -2254 4708 -2266 4708 -10 0 -1013 -266 -1075
-285 -9 -3 -453 -892 -1094 -2190 -593 -1202 -1081 -2185 -1084 -2185 -9 1
-1376 1860 -1376 1871 0 6 40 26 89 45 554 214 970 692 1104 1269 66 282 70
628 11 925 -82 412 -326 834 -642 1111 -230 201 -516 348 -812 417 -254 60
-119 56 -2163 59 -1511 3 -1873 1 -1877 -9z"/>
<path d="M53006 2993 c-1099 -1576 -2000 -2872 -2003 -2880 -4 -11 110 -13
675 -13 l680 0 1963 2818 c1080 1549 1983 2845 2007 2880 l44 62 -684 0 -685
0 -1997 -2867z"/>
<path d="M56472 4553 l3 -687 933 -430 c512 -237 932 -433 932 -436 0 -3 -420
-222 -933 -486 l-932 -481 -3 -708 c-2 -565 0 -706 10 -702 34 14 3512 1678
3516 1681 4 4 -356 1344 -365 1359 -5 8 -525 267 -2431 1213 l-732 363 2 -686z"/>
<path d="M1955 4434 c-868 -432 -1580 -786 -1581 -787 -7 -7 -364 -1344 -362
-1355 2 -11 3503 -1692 3523 -1692 3 0 4 318 3 706 l-3 705 -1002 472 c-551
260 -999 475 -995 478 4 4 452 204 997 444 545 241 993 441 998 444 4 4 6 314
5 688 l-3 681 -1580 -784z"/>
<path d="M34375 4676 l-530 -143 -3 -2217 -2 -2216 547 2 548 3 5 1263 5 1263
696 -1188 696 -1188 368 0 368 0 696 1240 696 1240 5 -1315 5 -1315 548 -3
547 -2 0 2305 0 2305 -548 0 -547 0 -880 -1569 c-484 -863 -882 -1567 -884
-1566 -1 2 -401 732 -887 1622 -635 1163 -888 1619 -901 1620 -10 1 -256 -62
-548 -141z"/>
<path d="M42510 4799 c-808 -59 -1474 -366 -1898 -874 -395 -472 -564 -1140
-476 -1885 48 -408 198 -788 433 -1095 25 -33 91 -107 146 -164 413 -429 921
-663 1635 -753 168 -21 797 -18 975 5 403 53 711 140 1020 292 705 345 1093
879 1213 1668 24 160 24 654 0 814 -42 274 -108 494 -212 708 -112 228 -227
385 -417 570 -445 433 -1038 663 -1834 715 -182 11 -417 11 -585 -1z m671
-1004 c714 -75 1099 -402 1215 -1030 27 -144 27 -585 0 -730 -81 -443 -293
-721 -674 -885 -249 -107 -599 -160 -972 -146 -714 28 -1113 223 -1327 651
-179 355 -202 965 -53 1387 50 143 115 251 217 358 222 235 547 363 1018 403
114 10 455 5 576 -8z"/>
<path d="M47390 4703 c-94 -7 -256 -34 -354 -59 -549 -139 -960 -539 -1071
-1044 -26 -118 -31 -385 -10 -512 89 -532 502 -960 1065 -1103 237 -60 200
-58 1280 -65 926 -5 999 -7 1050 -24 197 -65 298 -172 323 -342 25 -167 -74
-351 -221 -416 -125 -56 -20 -52 -1684 -55 l-1537 -4 -10 -32 c-34 -104 -281
-931 -281 -939 0 -14 3437 -4 3535 11 383 58 653 173 890 378 315 273 473 642
452 1063 -17 341 -148 631 -397 880 -254 255 -574 396 -999 439 -64 7 -438 11
-992 11 -981 0 -979 0 -1106 62 -82 40 -157 113 -191 185 -24 52 -27 69 -27
168 0 103 2 114 32 177 39 82 108 154 183 191 120 59 64 57 1647 57 l1451 0
16 48 c37 115 276 913 276 922 0 7 -524 9 -1637 8 -901 -1 -1658 -3 -1683 -5z"/>
<path d="M17267 3823 c-3 -6 -287 -942 -353 -1166 -5 -16 78 -17 1676 -15
l1682 3 177 585 c98 322 176 588 174 593 -2 4 -757 7 -1678 7 -921 0 -1676 -3
-1678 -7z"/>
</g>
</svg>
