<?xml version="1.0" standalone="no"?>
<!DOCTYPE svg PUBLIC "-//W3C//DTD SVG 20010904//EN"
 "http://www.w3.org/TR/2001/REC-SVG-20010904/DTD/svg10.dtd">
<svg version="1.0" xmlns="http://www.w3.org/2000/svg"
 width="300.000000pt" height="300.000000pt" viewBox="0 0 300.000000 300.000000"
 preserveAspectRatio="xMidYMid meet">

<g transform="translate(0.000000,300.000000) scale(0.100000,-0.100000)"
fill="#000000" stroke="none">
<path d="M154 2616 c-63 -29 -120 -95 -139 -160 -23 -77 -22 -1838 1 -1915 19
-66 73 -127 139 -157 l50 -24 1295 0 1295 0 50 24 c28 12 67 41 87 64 70 78
68 41 68 1052 0 1011 2 974 -68 1052 -20 23 -59 52 -87 64 l-50 24 -1295 0
-1295 0 -51 -24z m1956 -741 c-327 -328 -600 -594 -606 -593 -13 3 -1194 1172
-1194 1181 0 4 539 7 1197 7 l1198 0 -595 -595z m-1423 -37 l333 -333 -420
-420 -420 -420 0 834 0 833 88 -80 c48 -45 237 -231 419 -414z m2133 -340 l0
-833 -417 417 -418 418 415 415 c228 228 416 415 417 415 2 0 3 -375 3 -832z
m-1338 -433 c15 -4 37 -4 50 0 13 4 92 75 176 158 l152 152 423 -423 422 -422
-1205 0 -1205 0 425 425 424 424 156 -154 c90 -88 167 -156 182 -160z"/>
</g>
</svg>
