<?xml version="1.0" standalone="no"?>
<!DOCTYPE svg PUBLIC "-//W3C//DTD SVG 20010904//EN"
 "http://www.w3.org/TR/2001/REC-SVG-20010904/DTD/svg10.dtd">
<svg version="1.0" xmlns="http://www.w3.org/2000/svg"
 width="860.000000pt" height="720.000000pt" viewBox="0 0 860.000000 720.000000"
 preserveAspectRatio="xMidYMid meet">

<g transform="translate(0.000000,720.000000) scale(0.100000,-0.100000)"
fill="#ffffff" stroke="none">
<path d="M3880 6786 c0 -11 -21 -15 -90 -18 -52 -2 -94 -8 -98 -14 -4 -6 -34
-15 -67 -19 -33 -4 -63 -11 -66 -17 -3 -5 -25 -12 -48 -15 -25 -4 -41 -11 -41
-19 0 -9 -12 -14 -35 -14 -24 0 -35 -5 -35 -15 0 -10 -10 -15 -30 -15 -20 0
-30 -5 -30 -15 0 -10 -10 -15 -30 -15 -17 0 -33 -6 -36 -14 -3 -8 -19 -18 -35
-21 -16 -4 -29 -13 -29 -21 0 -9 -11 -14 -30 -14 -20 0 -30 -5 -30 -15 0 -8
-7 -15 -15 -15 -8 0 -15 -7 -15 -15 0 -8 -9 -15 -20 -15 -11 0 -20 -7 -20 -15
0 -8 -7 -15 -15 -15 -8 0 -15 -7 -15 -15 0 -8 -7 -15 -15 -15 -8 0 -15 -7 -15
-15 0 -8 -5 -15 -11 -15 -15 0 -59 -42 -59 -57 0 -7 -7 -13 -15 -13 -8 0 -15
-7 -15 -15 0 -8 -7 -15 -15 -15 -8 0 -15 -7 -15 -15 0 -8 -7 -15 -15 -15 -8 0
-15 -9 -15 -20 0 -11 -7 -20 -15 -20 -10 0 -15 -10 -15 -30 0 -20 -5 -30 -15
-30 -8 0 -15 -9 -15 -19 0 -11 -7 -26 -15 -34 -7 -8 -17 -28 -21 -43 -4 -16
-11 -32 -16 -35 -5 -3 -12 -25 -15 -48 -4 -25 -11 -41 -19 -41 -10 0 -14 -17
-14 -65 0 -48 -4 -65 -14 -65 -10 0 -14 -31 -18 -142 -4 -93 -9 -143 -17 -146
-16 -5 -15 -159 1 -164 8 -3 13 -56 16 -176 4 -137 7 -172 18 -172 10 0 14
-17 14 -65 l0 -65 -30 0 c-20 0 -30 -5 -30 -15 0 -10 -10 -15 -31 -15 -22 0
-32 -5 -36 -20 -3 -11 -12 -20 -19 -20 -9 0 -14 -11 -14 -30 0 -20 -5 -30 -15
-30 -13 0 -15 -24 -15 -160 0 -136 2 -160 15 -160 12 0 15 -13 15 -60 0 -47 3
-60 15 -60 10 0 15 -11 15 -35 0 -24 5 -35 14 -35 8 0 17 -13 21 -29 3 -16 13
-32 21 -35 8 -3 14 -12 14 -21 0 -8 7 -15 15 -15 8 0 15 -7 15 -15 0 -8 7 -15
15 -15 10 0 15 -10 15 -30 0 -18 5 -30 13 -30 19 0 44 -34 52 -69 4 -17 13
-31 21 -31 9 0 14 -11 14 -30 0 -20 5 -30 15 -30 10 0 15 -11 15 -35 0 -24 5
-35 15 -35 10 0 15 -10 15 -30 0 -20 5 -30 15 -30 10 0 15 -10 15 -30 0 -19 5
-30 14 -30 8 0 17 -15 20 -35 4 -21 13 -35 21 -35 8 0 15 -7 15 -15 0 -8 4
-15 9 -15 5 0 12 -14 16 -30 4 -17 13 -30 21 -30 9 0 14 -11 14 -30 0 -20 5
-30 15 -30 8 0 15 -9 15 -20 0 -11 6 -20 14 -20 8 0 17 -14 21 -30 4 -17 13
-30 21 -30 8 0 14 -6 14 -14 0 -8 7 -16 15 -20 8 -3 15 -12 15 -21 0 -8 7 -15
15 -15 8 0 15 -7 15 -15 0 -8 6 -15 14 -15 8 0 17 -12 20 -26 4 -15 20 -38 37
-53 16 -14 29 -31 29 -38 0 -7 7 -13 15 -13 8 0 15 -7 15 -15 0 -8 7 -15 15
-15 8 0 15 -7 15 -15 0 -8 9 -15 20 -15 10 0 34 -16 53 -35 19 -19 39 -35 46
-35 6 0 11 -7 11 -15 0 -10 10 -15 30 -15 20 0 30 -5 30 -15 0 -8 9 -15 20
-15 11 0 20 -7 20 -15 0 -10 10 -15 30 -15 20 0 30 -5 30 -15 0 -10 10 -15 30
-15 16 0 33 -7 38 -15 4 -9 26 -18 48 -22 21 -3 42 -11 46 -17 4 -6 39 -12 77
-14 52 -3 71 -8 71 -18 0 -11 31 -14 165 -14 140 0 165 2 165 15 0 12 13 15
60 15 39 0 62 5 67 13 4 8 26 17 47 20 22 4 42 11 45 16 4 5 20 13 36 17 16 4
36 13 43 21 7 7 22 13 33 13 10 0 19 7 19 15 0 10 10 15 30 15 20 0 30 5 30
15 0 8 9 15 20 15 11 0 20 6 20 14 0 8 14 17 30 21 17 4 30 13 30 21 0 8 7 14
15 14 8 0 15 7 15 15 0 8 7 15 15 15 8 0 15 7 15 15 0 8 9 15 20 15 11 0 20 7
20 15 0 8 7 15 15 15 8 0 15 7 15 15 0 8 7 15 15 15 8 0 15 9 15 20 0 11 7 20
15 20 8 0 15 7 15 15 0 8 7 15 15 15 8 0 15 7 15 15 0 8 7 15 15 15 8 0 15 6
15 13 0 7 9 20 20 30 11 9 20 24 20 32 0 8 7 15 15 15 8 0 15 9 15 20 0 11 6
20 14 20 8 0 17 13 21 30 4 16 11 30 16 30 5 0 9 7 9 15 0 9 6 18 14 21 8 3
18 19 21 35 4 16 13 29 21 29 8 0 14 7 14 15 0 8 7 15 15 15 10 0 15 11 15 35
0 24 5 35 15 35 10 0 15 10 15 30 0 19 5 30 14 30 8 0 17 13 21 30 4 16 11 30
15 30 5 0 12 16 16 35 3 20 12 35 20 35 9 0 14 11 14 30 0 20 5 30 15 30 10 0
15 11 15 35 0 24 5 35 15 35 10 0 15 10 15 30 0 20 5 30 15 30 8 0 15 7 15 15
0 8 9 15 20 15 11 0 20 6 20 14 0 8 7 16 15 20 8 3 15 17 15 31 0 16 6 25 15
25 8 0 15 9 15 20 0 11 7 20 15 20 10 0 15 10 15 30 0 19 5 30 14 30 9 0 15
16 19 46 2 26 11 50 18 55 9 5 15 35 17 83 2 42 8 76 13 76 5 0 9 29 9 65 0
36 -4 65 -9 65 -5 0 -11 25 -13 56 -3 39 -10 59 -21 66 -10 5 -17 16 -17 23 0
8 -7 15 -15 15 -8 0 -15 7 -15 15 0 8 -7 15 -15 15 -8 0 -15 7 -15 15 0 11
-11 15 -35 15 l-36 0 7 128 c4 74 12 130 18 134 15 10 15 556 0 566 -6 4 -14
41 -18 82 -3 41 -11 77 -17 81 -6 3 -13 26 -16 50 -3 24 -10 47 -15 50 -5 3
-12 25 -15 48 -4 25 -11 41 -19 41 -9 0 -14 12 -14 35 0 24 -5 35 -14 35 -8 0
-17 14 -21 30 -4 17 -11 30 -16 30 -5 0 -9 6 -9 13 0 7 -9 20 -20 30 -11 9
-20 23 -20 31 0 8 -7 16 -15 20 -8 3 -15 12 -15 21 0 8 -7 15 -15 15 -8 0 -15
7 -15 15 0 8 -7 15 -15 15 -8 0 -15 7 -15 15 0 8 -7 15 -15 15 -8 0 -15 6 -15
14 0 7 -9 16 -20 19 -11 3 -20 12 -20 21 0 9 -7 16 -15 16 -8 0 -15 7 -15 15
0 10 -10 15 -30 15 -20 0 -30 5 -30 15 0 8 -7 15 -15 15 -8 0 -15 7 -15 15 0
8 -9 15 -20 15 -11 0 -28 9 -37 20 -10 11 -23 20 -30 20 -7 0 -13 4 -13 9 0 5
-13 12 -30 16 -16 4 -30 13 -30 21 0 9 -11 14 -35 14 -24 0 -35 5 -35 15 0 10
-10 15 -34 15 -19 0 -41 6 -48 13 -7 8 -33 16 -57 20 -24 3 -47 11 -51 17 -4
6 -27 14 -51 17 -24 3 -47 11 -51 17 -4 6 -47 13 -98 14 -69 3 -90 7 -90 18 0
12 -39 14 -225 14 -186 0 -225 -2 -225 -14z m580 -995 c0 -5 48 -11 107 -13
72 -2 108 -7 110 -15 3 -7 27 -15 54 -19 32 -4 49 -11 49 -20 0 -9 12 -14 35
-14 24 0 35 -5 35 -15 0 -10 10 -15 30 -15 20 0 30 -5 30 -15 0 -10 10 -15 30
-15 20 0 30 -5 30 -15 0 -8 6 -15 13 -15 7 0 24 -13 38 -29 15 -17 38 -33 53
-37 14 -3 26 -12 26 -20 0 -8 7 -14 15 -14 8 0 15 -7 15 -15 0 -8 7 -15 15
-15 8 0 15 -7 15 -15 0 -8 5 -15 11 -15 15 0 59 -42 59 -57 0 -7 7 -13 15 -13
8 0 15 -7 15 -15 0 -8 6 -15 14 -15 20 0 22 -24 18 -242 -3 -162 -6 -198 -18
-198 -11 0 -14 -19 -14 -85 0 -69 -3 -85 -15 -85 -12 0 -15 -14 -15 -65 0 -51
3 -65 15 -65 10 0 15 10 15 30 0 20 5 30 15 30 8 0 15 9 15 20 0 11 7 20 15
20 8 0 15 7 15 15 0 8 7 15 15 15 8 0 15 7 15 15 0 10 11 15 35 15 19 0 35 -4
35 -10 0 -5 7 -10 16 -10 9 0 18 -9 21 -20 3 -11 9 -20 13 -20 5 0 11 -13 15
-30 4 -16 11 -30 16 -30 5 0 9 -29 9 -65 0 -36 -4 -65 -9 -65 -5 0 -12 -29
-16 -65 -5 -46 -11 -65 -21 -65 -9 0 -14 -11 -14 -35 0 -24 -5 -35 -15 -35
-10 0 -15 -10 -15 -30 0 -20 -5 -30 -15 -30 -8 0 -15 -7 -15 -15 0 -8 -7 -15
-15 -15 -8 0 -15 -5 -15 -11 0 -7 -16 -27 -35 -46 -19 -19 -35 -43 -35 -53 0
-11 -7 -20 -15 -20 -10 0 -15 -11 -15 -35 0 -24 -5 -35 -15 -35 -10 0 -15 -10
-15 -29 0 -16 -6 -36 -14 -43 -7 -8 -17 -29 -21 -46 -3 -18 -10 -32 -15 -32
-5 0 -11 -13 -15 -29 -3 -16 -13 -32 -21 -35 -8 -3 -14 -19 -14 -36 0 -20 -5
-30 -15 -30 -10 0 -15 -10 -15 -30 0 -20 -5 -30 -15 -30 -8 0 -15 -9 -15 -19
0 -11 -7 -26 -15 -35 -8 -8 -15 -22 -15 -30 0 -9 -6 -16 -14 -16 -8 0 -17 -13
-21 -29 -3 -16 -13 -32 -21 -35 -8 -3 -14 -17 -14 -31 0 -16 -6 -25 -15 -25
-8 0 -15 -9 -15 -20 0 -11 -7 -20 -15 -20 -8 0 -15 -7 -15 -15 0 -9 -7 -18
-15 -21 -8 -4 -15 -12 -15 -20 0 -8 -9 -22 -20 -31 -11 -10 -20 -23 -20 -30 0
-7 -7 -13 -15 -13 -8 0 -15 -7 -15 -15 0 -8 -7 -15 -15 -15 -8 0 -15 -7 -15
-15 0 -8 -7 -15 -15 -15 -8 0 -15 -7 -15 -15 0 -8 -6 -15 -13 -15 -7 0 -20 -9
-30 -20 -9 -11 -23 -20 -31 -20 -8 0 -16 -7 -20 -15 -3 -8 -12 -15 -21 -15 -8
0 -15 -7 -15 -15 0 -10 -10 -15 -30 -15 -19 0 -30 -5 -30 -14 0 -8 -15 -17
-34 -20 -19 -4 -36 -11 -38 -17 -2 -5 -21 -12 -43 -16 -22 -3 -43 -11 -47 -16
-3 -6 -32 -12 -65 -15 -32 -3 -61 -10 -65 -16 -5 -7 -62 -12 -160 -14 -124 -3
-154 -1 -163 11 -7 9 -35 16 -80 19 -40 2 -70 9 -73 16 -2 6 -26 14 -53 18
-32 4 -49 11 -49 20 0 9 -11 14 -30 14 -20 0 -30 5 -30 15 0 10 -10 15 -30 15
-20 0 -30 5 -30 15 0 8 -9 15 -20 15 -11 0 -20 7 -20 15 0 8 -7 15 -15 15 -8
0 -15 7 -15 15 0 8 -6 15 -12 15 -16 0 -58 44 -58 59 0 6 -7 11 -15 11 -8 0
-15 7 -15 15 0 8 -7 15 -15 15 -8 0 -15 7 -15 15 0 8 -7 15 -15 15 -8 0 -15 9
-15 20 0 11 -7 20 -15 20 -8 0 -15 7 -15 15 0 8 -6 15 -14 15 -8 0 -17 13 -21
30 -4 17 -13 30 -21 30 -8 0 -14 9 -14 20 0 11 -7 20 -15 20 -10 0 -15 10 -15
30 0 20 -5 30 -15 30 -10 0 -15 10 -15 30 0 20 -5 30 -15 30 -8 0 -15 7 -15
15 0 9 -6 18 -14 21 -8 3 -18 19 -21 35 -4 16 -10 29 -15 29 -5 0 -11 13 -15
29 -3 16 -13 32 -21 35 -8 3 -14 19 -14 36 0 20 -5 30 -15 30 -10 0 -15 10
-15 30 0 20 -5 30 -15 30 -10 0 -15 10 -15 34 0 19 -6 41 -14 48 -7 8 -17 29
-21 46 -3 18 -13 32 -21 32 -9 0 -14 11 -14 30 0 20 -5 30 -15 30 -8 0 -15 9
-15 20 0 11 -7 20 -15 20 -8 0 -15 7 -15 15 0 8 -7 15 -15 15 -8 0 -15 7 -15
15 0 8 -6 15 -14 15 -8 0 -17 13 -21 29 -3 16 -13 32 -21 35 -8 3 -14 19 -14
36 0 20 -5 30 -15 30 -11 0 -15 12 -15 45 0 33 -4 45 -15 45 -13 0 -15 21 -15
130 0 109 2 130 15 130 8 0 15 7 15 15 0 8 7 15 15 15 8 0 15 7 15 15 0 11 12
15 50 15 38 0 50 -4 50 -15 0 -8 6 -15 14 -15 8 0 17 -13 21 -30 4 -16 11 -30
16 -30 5 0 9 -6 9 -13 0 -7 9 -20 20 -30 13 -11 20 -29 20 -52 0 -39 14 -47
23 -14 7 26 -2 79 -13 79 -4 0 -10 35 -14 77 -4 43 -12 80 -17 84 -6 3 -13 53
-16 110 -3 59 -11 107 -17 111 -7 5 -12 64 -14 163 -3 136 -1 155 12 155 12 0
16 10 16 34 0 19 7 41 15 50 8 8 18 29 21 45 4 17 13 31 20 31 8 0 14 7 14 15
0 8 7 15 15 15 8 0 15 9 15 20 0 11 7 20 15 20 8 0 15 7 15 15 0 8 5 15 11 15
7 0 18 8 25 18 13 16 15 16 28 0 9 -12 27 -18 55 -18 26 0 44 -5 47 -14 3 -8
25 -17 50 -21 28 -4 44 -11 44 -21 0 -9 11 -14 35 -14 24 0 35 -5 35 -15 0
-10 10 -15 30 -15 20 0 30 -5 30 -15 0 -10 10 -15 30 -15 20 0 30 -5 30 -15 0
-10 10 -15 30 -15 19 0 30 -5 30 -14 0 -8 13 -17 29 -21 16 -3 32 -13 35 -21
3 -8 12 -14 21 -14 8 0 15 -7 15 -15 0 -8 9 -15 20 -15 11 0 20 -7 20 -15 0
-9 9 -15 25 -15 15 0 25 -6 25 -14 0 -7 9 -16 20 -19 11 -3 20 -12 20 -21 0
-9 7 -16 15 -16 8 0 15 -7 15 -15 0 -8 7 -15 15 -15 8 0 15 -7 15 -15 0 -8 9
-15 20 -15 11 0 20 -7 20 -15 0 -8 7 -15 15 -15 8 0 15 -7 15 -15 0 -8 7 -15
15 -15 8 0 15 -7 15 -15 0 -8 7 -15 15 -15 8 0 15 -9 15 -20 0 -11 7 -20 15
-20 8 0 15 -7 15 -15 0 -8 6 -15 14 -15 32 0 32 336 0 368 -8 7 -14 29 -14 48
0 24 -5 34 -15 34 -10 0 -15 10 -15 30 0 29 1 30 50 30 38 0 50 -4 50 -15 0
-11 12 -15 45 -15 33 0 45 -4 45 -15 0 -10 11 -15 35 -15 24 0 35 -5 35 -15 0
-10 10 -15 30 -15 19 0 30 -5 30 -14 0 -8 13 -17 29 -21 16 -3 32 -13 35 -21
3 -8 17 -14 31 -14 16 0 25 -6 25 -15 0 -8 9 -15 20 -15 11 0 20 -7 20 -15 0
-8 7 -15 15 -15 9 0 18 -7 21 -15 4 -8 12 -15 20 -15 8 0 22 -9 31 -20 10 -11
23 -20 30 -20 7 0 13 -7 13 -15 0 -8 7 -15 15 -15 8 0 15 -7 15 -15 0 -8 7
-15 15 -15 8 0 15 -7 15 -15 0 -8 7 -15 15 -15 9 0 18 -7 21 -15 4 -8 12 -15
20 -15 8 0 14 -6 14 -14 0 -8 7 -16 15 -20 8 -3 15 -12 15 -21 0 -8 7 -15 15
-15 8 0 15 -7 15 -15 0 -8 7 -15 15 -15 10 0 15 10 15 30 0 20 -5 30 -15 30
-12 0 -15 14 -15 65 0 51 -3 65 -15 65 -11 0 -15 12 -15 45 0 31 -5 47 -14 51
-8 3 -18 20 -22 37 -3 17 -13 37 -20 45 -8 7 -14 20 -14 28 0 9 -7 22 -15 30
-8 9 -15 24 -15 35 0 10 -7 19 -15 19 -10 0 -15 10 -15 30 0 20 -5 30 -15 30
-8 0 -15 6 -15 13 0 7 -13 24 -30 37 -16 14 -29 31 -30 38 0 6 -9 12 -20 12
-11 0 -20 7 -20 15 0 8 -7 15 -15 15 -8 0 -15 9 -15 20 0 11 -7 20 -15 20 -9
0 -15 9 -15 25 0 16 6 25 15 25 8 0 15 -4 15 -9z"/>
<path d="M3010 2573 c-8 -3 -18 -10 -21 -15 -3 -5 -26 -12 -50 -15 -24 -3 -47
-10 -50 -16 -4 -5 -27 -12 -53 -14 -30 -4 -46 -10 -46 -19 0 -10 -16 -14 -60
-14 -47 0 -60 -3 -60 -15 0 -11 -12 -15 -50 -15 -36 0 -50 -4 -50 -14 0 -9
-17 -15 -56 -18 -31 -3 -59 -10 -63 -16 -4 -6 -27 -14 -51 -18 -25 -4 -48 -12
-52 -17 -3 -6 -34 -13 -67 -15 -43 -3 -61 -8 -61 -18 0 -10 -13 -14 -45 -14
-31 0 -45 -4 -45 -14 0 -9 -16 -15 -46 -19 -26 -2 -49 -9 -53 -14 -3 -6 -19
-13 -36 -17 -16 -4 -33 -12 -36 -18 -3 -5 -25 -12 -48 -15 -25 -4 -41 -11 -41
-19 0 -9 -12 -14 -35 -14 -24 0 -35 -5 -35 -15 0 -10 -10 -15 -30 -15 -20 0
-30 -5 -30 -15 0 -10 -10 -15 -30 -15 -17 0 -33 -6 -36 -14 -3 -8 -19 -18 -35
-21 -16 -4 -29 -13 -29 -21 0 -9 -11 -14 -30 -14 -20 0 -30 -5 -30 -15 0 -8
-7 -15 -15 -15 -8 0 -15 -7 -15 -15 0 -10 -10 -15 -30 -15 -20 0 -30 -5 -30
-15 0 -8 -9 -15 -20 -15 -13 0 -20 -7 -20 -20 0 -11 -7 -20 -15 -20 -8 0 -15
-7 -15 -15 0 -8 -7 -15 -15 -15 -8 0 -15 -7 -15 -15 0 -8 -6 -15 -14 -15 -8 0
-17 -13 -21 -30 -4 -16 -13 -30 -21 -30 -9 0 -14 -11 -14 -30 0 -20 -5 -30
-15 -30 -10 0 -15 -11 -15 -35 0 -24 -5 -35 -15 -35 -11 0 -15 -12 -15 -45 0
-27 -5 -47 -14 -52 -7 -4 -15 -32 -18 -62 -3 -29 -11 -56 -17 -61 -7 -4 -15
-33 -18 -66 -3 -32 -11 -62 -17 -66 -7 -5 -12 -60 -14 -148 -3 -112 -7 -140
-18 -140 -12 0 -14 -52 -14 -320 l0 -320 2997 0 2996 0 -6 397 c-6 299 -10
399 -20 405 -8 4 -13 40 -15 98 -3 69 -7 90 -18 90 -11 0 -14 16 -14 65 0 51
-3 65 -15 65 -11 0 -15 12 -15 50 0 36 -4 50 -14 50 -8 0 -16 16 -19 42 -3 24
-10 44 -16 46 -6 2 -13 19 -17 38 -3 19 -12 34 -20 34 -9 0 -14 11 -14 30 0
20 -5 30 -15 30 -8 0 -15 9 -15 20 0 11 -7 20 -15 20 -8 0 -15 7 -15 15 0 8
-6 15 -12 15 -7 1 -24 14 -38 30 -13 17 -30 30 -37 30 -7 0 -13 7 -13 15 0 8
-7 15 -15 15 -8 0 -15 7 -15 15 0 10 -10 15 -30 15 -20 0 -30 5 -30 15 0 8 -9
15 -20 15 -11 0 -28 9 -37 20 -10 11 -23 20 -30 20 -7 0 -13 4 -13 10 0 5 -16
12 -35 16 -20 3 -35 12 -35 20 0 9 -11 14 -30 14 -20 0 -30 5 -30 15 0 10 -10
15 -34 15 -19 0 -41 6 -48 13 -7 8 -27 17 -43 21 -16 4 -32 12 -36 17 -3 5
-23 12 -45 16 -21 3 -43 12 -47 20 -5 8 -26 13 -52 13 -33 0 -45 4 -45 15 0
11 -12 15 -50 15 -38 0 -50 4 -50 15 0 11 -12 15 -45 15 -27 0 -47 5 -52 14
-4 7 -32 15 -62 18 -29 3 -57 11 -61 17 -4 7 -27 15 -51 18 -24 3 -47 11 -51
16 -3 6 -31 12 -62 15 -39 3 -56 9 -56 18 0 10 -14 14 -50 14 -38 0 -50 4 -50
15 0 11 -12 15 -50 15 -36 0 -50 4 -50 14 0 9 -17 15 -56 18 -31 3 -59 11 -64
17 -4 7 -28 16 -54 18 l-46 6 0 -87 c0 -70 -3 -86 -15 -86 -12 0 -15 -13 -15
-60 0 -47 -3 -60 -15 -60 -10 0 -15 -10 -15 -34 0 -19 -6 -41 -14 -48 -7 -8
-17 -29 -21 -46 -3 -18 -13 -32 -21 -32 -9 0 -14 -11 -14 -30 0 -20 -5 -30
-15 -30 -8 0 -15 -9 -15 -20 0 -11 -7 -20 -15 -20 -8 0 -15 -7 -15 -15 0 -8
-7 -15 -15 -15 -8 0 -15 -9 -15 -20 0 -10 -16 -34 -35 -53 -19 -19 -35 -39
-35 -46 0 -6 -7 -11 -15 -11 -8 0 -15 -7 -15 -15 0 -8 -9 -15 -20 -15 -11 0
-20 -6 -20 -14 0 -8 -11 -17 -25 -20 -14 -4 -25 -11 -25 -16 0 -6 -7 -10 -15
-10 -9 0 -18 -6 -21 -14 -3 -8 -19 -18 -35 -21 -16 -4 -29 -13 -29 -21 0 -9
-11 -14 -30 -14 -20 0 -30 -5 -30 -15 0 -10 -11 -15 -35 -15 -23 0 -35 -5 -35
-14 0 -9 -16 -15 -46 -19 -26 -2 -50 -10 -54 -16 -4 -7 -46 -15 -98 -18 -51
-3 -92 -10 -92 -14 0 -5 -34 -9 -75 -9 -41 0 -75 4 -75 9 0 4 -37 11 -82 15
-45 4 -85 12 -89 18 -4 5 -27 13 -53 15 -30 4 -46 10 -46 19 0 10 -14 14 -45
14 -33 0 -45 4 -45 15 0 10 -10 15 -30 15 -20 0 -30 5 -30 15 0 8 -7 15 -15
15 -9 0 -18 6 -21 14 -3 8 -19 18 -35 21 -16 4 -29 13 -29 21 0 8 -7 14 -15
14 -8 0 -15 7 -15 15 0 8 -9 15 -20 15 -11 0 -20 7 -20 15 0 8 -7 15 -15 15
-8 0 -15 7 -15 15 0 8 -7 15 -15 15 -8 0 -15 7 -15 15 0 8 -7 15 -15 15 -8 0
-15 9 -15 20 0 11 -7 20 -15 20 -8 0 -15 7 -15 15 0 8 -6 15 -14 15 -8 0 -17
14 -21 30 -4 17 -13 30 -21 30 -8 0 -14 9 -14 20 0 11 -7 20 -15 20 -10 0 -15
10 -15 30 0 20 -5 30 -15 30 -10 0 -15 11 -15 35 0 23 -5 35 -14 35 -9 0 -15
17 -18 56 -3 31 -10 59 -16 63 -6 4 -14 44 -18 89 -4 45 -10 82 -15 82 -4 0
-9 12 -11 28 -2 22 -8 27 -33 29 -16 1 -37 -1 -45 -4z"/>
</g>
</svg>
